<svg width="14" height="14" viewBox="0 0 14 14" fill="none" xmlns="http://www.w3.org/2000/svg">
<path d="M5.51549 0.957801C6.26099 -0.0253703 7.73901 -0.0253702 8.48451 0.957801C8.89127 1.49425 9.55582 1.76952 10.2228 1.67782C11.4451 1.50975 12.4902 2.55487 12.3222 3.77722C12.2305 4.44418 12.5057 5.10873 13.0422 5.51549C14.0254 6.26099 14.0254 7.73901 13.0422 8.48451C12.5057 8.89127 12.2305 9.55582 12.3222 10.2228C12.4902 11.4451 11.4451 12.4902 10.2228 12.3222C9.55582 12.2305 8.89127 12.5057 8.48451 13.0422C7.73901 14.0254 6.26099 14.0254 5.51549 13.0422C5.10873 12.5057 4.44418 12.2305 3.77722 12.3222C2.55488 12.4902 1.50975 11.4451 1.67782 10.2228C1.76952 9.55582 1.49425 8.89127 0.957801 8.48451C-0.0253702 7.73901 -0.0253702 6.26099 0.957801 5.51549C1.49425 5.10873 1.76952 4.44418 1.67782 3.77722C1.50975 2.55487 2.55488 1.50975 3.77722 1.67782C4.44418 1.76952 5.10873 1.49425 5.51549 0.957801Z" fill="#24599C"/>
</svg>
